<?xml version="1.0" encoding="utf-8"?>
<!-- Generator: Adobe Illustrator 22.0.1, SVG Export Plug-In . SVG Version: 6.00 Build 0)  -->
<svg version="1.1" xmlns="http://www.w3.org/2000/svg" xmlns:xlink="http://www.w3.org/1999/xlink" x="0px" y="0px"
	 viewBox="0 0 32 32" style="enable-background:new 0 0 32 32;" xml:space="preserve">
<style type="text/css">
	.st0{display:none;}
	.st1{display:inline;fill:#00F4F4;}
	.st2{fill:#FFFFFF;}
</style>
<g id="Слой_2" class="st0">
	<rect class="st1" width="32" height="32"/>
</g>
<g id="Слой_1">
	<g>
		<g>
			<path class="st2" d="M7.2,15.8h4.8L9.6,8.4L7.2,15.8z M25,0H7C3.1,0,0,3.1,0,7V20c0,3.8,3.1,7,7,7H25c3.8,0,7-3.1,7-7V7
				C32,3.1,28.9,0,25,0z M25.3,1.8c1.4,0,2.5,1,2.5,2.3c0,1.3-1.1,2.3-2.5,2.3s-2.5-1-2.5-2.3C22.8,2.8,23.9,1.8,25.3,1.8z M20.3,23
				h-8.9v-1.5l2.2-0.3l-1.2-3.7H6.6l-1.2,3.6l2.2,0.4V23H1.4v-1.6l2.3-0.3L9.7,3.9h3l5.9,17.4l1.8,0.2V23z M29.1,23h-7.7v-1.4
				l1.6-0.3c0-1.4,0-3.2,0-4.4v-1.4c0-1.6,0-2.5-0.1-3.7l-1.8-0.3v-1.1l6.1-1.9l0.5,0.3l-0.1,4.2v3.9c0,1.2,0,3,0,4.4l1.4,0.3V23z"
				/>
		</g>
	</g>
</g>
</svg>
