<?xml version="1.0" encoding="utf-8"?>
<!-- Generator: Adobe Illustrator 22.0.1, SVG Export Plug-In . SVG Version: 6.00 Build 0)  -->
<svg version="1.1" xmlns="http://www.w3.org/2000/svg" xmlns:xlink="http://www.w3.org/1999/xlink" x="0px" y="0px"
	 viewBox="0 0 32 32" style="enable-background:new 0 0 32 32;" xml:space="preserve">
<style type="text/css">
	.st0{display:none;}
	.st1{display:inline;fill:#00F4F4;}
	.st2{fill:#FFFFFF;}
</style>
<g id="Слой_2" class="st0">
	<rect class="st1" width="32" height="32"/>
</g>
<g id="Слой_1">
	<g>
		<g>
			<path class="st2" d="M25,0H7C3.1,0,0,3.1,0,7V20c0,3.8,3.1,7,7,7H25c3.8,0,7-3.1,7-7V7C32,3.1,28.9,0,25,0z M25,22.7L16,25
				l-8.9-2.3l-0.6-6.3h4.3l0.2,3l4.9,1.2l4.8-1.2l0.5-4.9h-9.9l-0.5-4h10.9l0.4-3.9L5.5,6.4L5,2.4h22L25,22.7z"/>
		</g>
	</g>
</g>
</svg>
