<?xml version="1.0" encoding="utf-8"?>
<!-- Generator: Adobe Illustrator 22.0.1, SVG Export Plug-In . SVG Version: 6.00 Build 0)  -->
<svg version="1.1" id="Слой_1" xmlns="http://www.w3.org/2000/svg" xmlns:xlink="http://www.w3.org/1999/xlink" x="0px" y="0px"
	 viewBox="0 0 500 500" style="enable-background:new 0 0 500 500;" xml:space="preserve">
<style type="text/css">
	.st0{fill:#36B3CD;}
	.st1{font-family:'AntroVectra';}
	.st2{font-size:400px;}
	.st3{font-size:380px;}
</style>
<g>
	<path class="st0" d="M479.5,243c0,26-4.9,52-14.4,76.3c-0.5,1.5-1.2,3-1.9,4.5l-1.9,4.5c-1.3,3-2.8,5.9-4.2,8.8
		c-1.5,2.9-3.1,5.8-4.6,8.7c-1.6,2.8-3.4,5.6-5,8.4c-7,11.1-15.1,21.5-24.2,31c-9.1,9.5-19.1,18.2-30.1,25.7
		c-2.8,1.8-5.5,3.7-8.3,5.4c-2.9,1.7-5.7,3.4-8.6,5l-4.4,2.3c-1.5,0.7-2.9,1.6-4.4,2.2L363,428c-1.5,0.7-3,1.4-4.5,2
		c-24.4,10.3-51,15.4-77.5,15.1c-13.2-0.2-26.4-1.7-39.3-4.5c-12.9-2.8-25.5-6.9-37.5-12.2c-12-5.3-23.5-11.7-34.3-19.2
		c-10.8-7.4-20.8-15.9-30-25.2c-18.4-18.6-33.2-40.7-43.4-64.7l-1.8-4.5c-0.6-1.5-1.3-3-1.8-4.6l-1.6-4.6c-0.5-1.5-1.1-3.1-1.5-4.7
		l-1.4-4.7c-0.4-1.6-1-3.1-1.3-4.7l-1.2-4.8c-0.4-1.6-0.8-3.2-1.1-4.8c-2.7-12.8-4.2-25.9-4.5-39c-0.4-26.3,4.2-52.8,14.1-77.3
		c9.8-24.6,24.7-47.1,43.3-66c9.3-9.4,19.6-18,30.6-25.4c11-7.4,22.7-13.8,35-19c12.3-5.2,25.1-9.1,38.1-11.7
		c13.1-2.6,26.4-3.9,39.7-3.9c13.3,0.1,26.6,1.4,39.6,4.1c13,2.6,25.8,6.6,38,11.8c1.6,0.6,3,1.4,4.5,2l4.5,2.1
		c1.5,0.7,3,1.5,4.4,2.3l4.4,2.3c2.9,1.6,5.7,3.4,8.6,5.1c2.8,1.8,5.5,3.7,8.3,5.5c10.9,7.5,20.9,16.3,30,25.8
		c9.1,9.6,17.2,20,24.2,31.1c1.7,2.8,3.4,5.6,5,8.4c1.5,2.9,3.2,5.7,4.6,8.7c1.4,3,2.9,5.9,4.2,8.8l1.9,4.5c0.6,1.5,1.3,3,1.9,4.5
		C474.7,191,479.5,217,479.5,243z M478.5,243c0-25.9-5.4-51.7-15.8-75.3c-0.6-1.5-1.3-2.9-2-4.4l-2.1-4.4c-0.7-1.5-1.5-2.8-2.2-4.3
		l-2.3-4.2c-1.6-2.8-3.3-5.5-5-8.2c-1.7-2.7-3.6-5.3-5.4-8c-7.4-10.5-15.8-20.2-25.1-29c-9.2-8.8-19.4-16.6-30-23.5
		c-2.7-1.6-5.4-3.4-8.1-4.9c-2.8-1.5-5.5-3.1-8.4-4.5l-4.3-2.1c-1.4-0.7-2.8-1.5-4.3-2.1l-4.3-1.9c-1.5-0.6-2.9-1.3-4.4-1.8
		c-11.7-4.7-23.9-8.3-36.3-10.7c-12.4-2.4-25-3.5-37.6-3.5c-12.6,0.1-25.2,1.2-37.6,3.7c-12.4,2.4-24.5,6.1-36.2,10.9
		c-23.4,9.5-44.8,23.7-62.9,41.5c-18,17.8-32.5,39.1-42.6,62.4l-1.8,4.4c-0.6,1.5-1.3,2.9-1.7,4.4l-1.6,4.5c-0.5,1.5-1.1,3-1.5,4.5
		l-1.4,4.6c-0.4,1.5-1,3-1.3,4.6l-1.2,4.6c-0.4,1.5-0.8,3.1-1.1,4.6c-2.7,12.4-4.2,25.2-4.4,38c-0.4,25.6,4.2,51.3,13.9,75.1
		c9.6,23.8,24.2,45.7,42.5,63.7c9.2,9,19.2,17.1,30,24.1c10.8,6.9,22.2,12.8,34.1,17.5c23.8,9.3,49.3,13.8,74.7,13.4
		c50.8-0.5,100.8-20.8,137.8-56.1c18.5-17.6,33.7-38.8,44-62.5C473.2,294.7,478.5,268.9,478.5,243z"/>
</g>
<text transform="matrix(1 0 0 1 0.2529 309.5493)" class="st0 st1 st2">S</text>
<text transform="matrix(1 0 0 1 16.2529 297.5493)" class="st0 st1 st3">S</text>
</svg>
