<?xml version="1.0" encoding="utf-8"?>
<!-- Generator: Adobe Illustrator 22.0.1, SVG Export Plug-In . SVG Version: 6.00 Build 0)  -->
<svg version="1.1" xmlns="http://www.w3.org/2000/svg" xmlns:xlink="http://www.w3.org/1999/xlink" x="0px" y="0px"
	 viewBox="0 0 32 32" style="enable-background:new 0 0 32 32;" xml:space="preserve">
<style type="text/css">
	.st0{display:none;}
	.st1{display:inline;fill:#00F4F4;}
	.st2{fill:#FFFFFF;}
</style>
<g id="Слой_2" class="st0">
	<rect class="st1" width="32" height="32"/>
</g>
<g id="Слой_1">
	<g>
		<g>
			<path class="st2" d="M10,4.8H9.4c0,2.4-0.1,4.8-0.1,7.3v1.1h0.9c2.6,0,3.8-1.8,3.8-4.4C14,6.2,12.6,4.8,10,4.8z M25,0H7
				C3.1,0,0,3.1,0,7V20c0,3.8,3.1,7,7,7H25c3.8,0,7-3.1,7-7V7C32,3.1,28.9,0,25,0z M10.1,14.9H9.3c0,1.7,0,3.5,0,5.5l2.6,0.3v1.6
				H2.2v-1.6l2.2-0.2c0-2.4,0.1-4.8,0.1-7.2v-1.1c0-2.4,0-4.8-0.1-7.2L2.2,4.7V3.1h7.9c6,0,8.5,2.3,8.5,5.7
				C18.6,12.2,16.4,14.9,10.1,14.9z M24.5,22.6c-1.9,0-3.5-0.4-5-1.3l0.1-3.6h2.3l0.5,2.9c0.7,0.3,1.4,0.4,2.2,0.4
				c1.7,0,2.6-0.5,2.6-1.7c0-0.9-0.5-1.5-2.4-2.1l-1.6-0.5c-2.2-0.7-3.5-2.1-3.5-4.3c0-2.7,2.1-4.7,6.1-4.7c1.7,0,3.1,0.4,4.6,1.2
				l-0.2,3.2h-2.3l-0.6-2.5c-0.5-0.2-0.9-0.2-1.6-0.2c-1.3,0-2.2,0.6-2.2,1.6c0,0.8,0.4,1.4,2.4,2l1.4,0.4c2.8,0.8,3.9,2.3,3.9,4.5
				C31.1,20.9,28.6,22.6,24.5,22.6z"/>
		</g>
	</g>
</g>
</svg>
